<?xml version="1.0" encoding="UTF-8" standalone="no"?>
<svg
   width="32"
   height="32"
   version="1.1"
   id="svg4"
   sodipodi:docname="cog.svg"
   inkscape:version="1.1.2 (0a00cf5339, 2022-02-04, custom)"
   xmlns:inkscape="http://www.inkscape.org/namespaces/inkscape"
   xmlns:sodipodi="http://sodipodi.sourceforge.net/DTD/sodipodi-0.dtd"
   xmlns="http://www.w3.org/2000/svg"
   xmlns:svg="http://www.w3.org/2000/svg">
  <defs
     id="defs8" />
  <sodipodi:namedview
     id="namedview6"
     pagecolor="#ffffff"
     bordercolor="#666666"
     borderopacity="1.0"
     inkscape:pageshadow="2"
     inkscape:pageopacity="0.0"
     inkscape:pagecheckerboard="0"
     showgrid="false"
     inkscape:zoom="6.4375"
     inkscape:cx="31.92233"
     inkscape:cy="41.320388"
     inkscape:window-width="951"
     inkscape:window-height="1044"
     inkscape:window-x="0"
     inkscape:window-y="0"
     inkscape:window-maximized="1"
     inkscape:current-layer="svg4" />
  <path
     d="M 13.76013,2.4546012 12.308021,2.213237 Z m -0.30612,1.8426093 1.452109,0.2413641 z m -0.33948,0.392462 0.465068,1.3952023 z M 9.0309624,7.0483691 8.0537322,5.9494754 Z M 8.520762,7.1464849 9.0368494,5.7689428 Z M 6.7684189,6.4910731 7.2845063,5.111569 Z M 5.575334,6.9188567 4.2998324,6.1829905 Z M 3.4638882,10.576603 2.1883866,9.8407369 Z m 0.2256657,1.248029 0.936022,-1.136177 -0.936022,1.13814 z m 1.4442603,1.18916 -0.9360219,1.136178 0.9360219,-1.13814 z M 5.302573,13.50437 6.7448711,13.796754 5.302573,13.502408 Z m 0,4.715431 1.4422981,-0.294346 z M 5.1338142,18.710379 6.067874,19.844594 5.1338142,18.708417 Z m -1.4442603,1.187198 -0.9340596,-1.13814 z m -0.2256657,1.248029 -1.2755016,0.735866 z m 2.1134082,3.657746 1.2755018,-0.735866 z m 1.1930845,0.427784 0.5160879,1.379504 z M 8.5227239,24.575724 8.0066365,23.19622 Z m 0.510201,0.09812 -0.9772307,1.098894 z m 4.0816051,2.358697 0.465068,-1.395203 z m 0.33948,0.392462 1.452109,-0.241365 z m 0.30612,1.844571 1.45211,-0.243326 -1.45211,0.241364 z m 6.161654,0 -1.452109,-0.243326 1.452109,0.241364 z m 0.306121,-1.844571 1.452109,0.241364 z m 0.33948,-0.392462 0.467029,1.397165 z m 4.081605,-2.358697 -0.975269,-1.100856 0.975269,1.098893 z m 0.510201,-0.09812 0.516087,-1.379504 z m 1.752343,0.655412 -0.516088,1.379504 z m 1.195046,-0.427784 -1.275501,-0.735866 z m 2.111446,-3.657746 1.275502,0.735866 z m -0.225665,-1.248029 -0.936022,1.136177 0.936022,-1.13814 z m -1.444261,-1.18916 -0.934059,1.13814 z m -0.168759,-0.490578 1.442299,0.294346 z m 0,-4.715431 1.442299,-0.294347 z M 28.5481,13.01183 27.614041,11.877615 28.5481,13.013792 Z m 1.444261,-1.187198 -0.936022,-1.136177 0.936022,1.13814 z m 0.225665,-1.248029 1.275502,-0.7358661 z M 28.104618,6.9188567 26.829116,7.6547233 Z M 26.909571,6.4910731 26.393483,5.111569 Z M 25.157228,7.1464849 24.641141,5.7689428 Z m -0.510201,-0.098116 -0.975268,1.1008563 0.975268,-1.0988938 z m -4.07768,-2.3586966 -0.465068,1.3952023 z m -0.33948,-0.392462 1.45211,-0.2413642 z m -0.30612,-1.8445717 -1.45211,0.2433266 1.45211,-0.2413642 z M 14.729512,3.106088 h 4.222891 V 0.16262279 H 14.729512 Z M 15.21224,2.6959654 A 0.49057756,0.49057756 0 0 1 14.729512,3.1060882 V 0.16262279 A 2.4528878,2.4528878 0 0 0 12.308021,2.2112747 Z M 14.906119,4.540537 15.21224,2.6959654 12.308021,2.213237 12.0019,4.0558463 14.906119,4.5385746 Z M 13.579598,6.0848748 C 14.25267,5.8611716 14.782494,5.2803277 14.906119,4.5385746 L 12.0019,4.0558463 A 0.96938124,0.96938124 0 0 1 12.649463,3.2925077 Z M 10.008193,8.1492254 A 10.290355,10.290355 0 0 1 13.579598,6.0848748 L 12.649463,3.2925077 A 13.23382,13.23382 0 0 0 8.0576566,5.9475134 Z M 8.0066365,8.5259889 C 8.7130684,8.7889383 9.4783693,8.6201796 10.008193,8.1492254 L 8.0556942,5.9475134 A 0.96938124,0.96938124 0 0 1 9.0388118,5.7689428 Z M 6.2542935,7.8686151 8.0066365,8.5259889 9.0388118,5.7689428 7.2864688,5.111569 Z M 6.8508357,7.6527608 A 0.49057756,0.49057756 0 0 1 6.2542935,7.8686151 L 7.2864688,5.111569 A 2.4528878,2.4528878 0 0 0 4.3017947,6.1829905 L 6.8527982,7.6547233 Z M 4.7393899,11.314432 6.8508357,7.6566853 4.3017947,6.1849525 2.1903489,9.8407369 4.7393899,11.312469 Z m -0.113814,-0.624015 a 0.49057756,0.49057756 0 0 1 0.113814,0.624015 L 2.1883866,9.8426989 a 2.4528878,2.4528878 0 0 0 0.5671077,3.1200731 z m 1.4422981,1.18916 -1.4422981,-1.18916 -1.8700816,2.272355 1.442298,1.18916 z m 0.6769971,1.919139 A 1.9740841,1.9740841 0 0 0 6.067874,11.879577 L 4.1977923,14.151932 A 0.96938124,0.96938124 0 0 1 3.8602749,13.210024 Z m -0.2060429,2.062389 c 0,-0.708394 0.070644,-1.399128 0.2060429,-2.064351 L 3.8602749,13.208061 C 3.6875916,14.067553 3.595363,14.954517 3.595363,15.861105 Z m 0.2060429,2.06435 A 10.355111,10.355111 0 0 1 6.5388282,15.861105 H 3.595363 c 0,0.906587 0.092229,1.793551 0.2649119,2.65108 z M 6.067874,19.844594 c 0.5808438,-0.476841 0.8182835,-1.224481 0.6769971,-1.919139 l -2.8845962,0.588693 a 0.96938124,0.96938124 0 0 1 0.3375174,-0.941909 z m -1.4422981,1.18916 1.4422981,-1.18916 -1.8700817,-2.272355 -1.442298,1.18916 z m 0.113814,-0.624014 a 0.49057756,0.49057756 0 0 1 -0.113814,0.624014 L 2.7554943,18.761399 A 2.4528878,2.4528878 0 0 0 2.1903489,21.881472 Z M 6.8508357,24.067486 4.7393899,20.40974 2.1883866,21.881472 4.3017947,25.539219 6.8527982,24.067486 Z M 6.2542935,23.853594 a 0.49057756,0.49057756 0 0 1 0.5965422,0.215854 l -2.549041,1.471733 c 0.6004669,1.0361 1.8622325,1.491356 2.9846741,1.069459 z m 1.752343,-0.657374 -1.752343,0.657374 1.0321753,2.757046 1.752343,-0.657374 z m 2.0015565,0.376764 A 1.9740841,1.9740841 0 0 0 8.0066365,23.198183 l 1.0321753,2.755083 a 0.96938124,0.96938124 0 0 1 -0.9811552,-0.17857 z m 3.571405,2.06435 a 10.288393,10.288393 0 0 1 -3.571405,-2.06435 L 8.0556942,25.774696 A 13.235783,13.235783 0 0 0 12.6475,28.429702 Z m 1.326521,1.5463 a 1.9740841,1.9740841 0 0 0 -1.326521,-1.5463 l -0.930135,2.792368 A 0.96938124,0.96938124 0 0 1 12.0019,27.668325 Z m 0.306121,1.84261 -0.306121,-1.844572 -2.904219,0.486653 0.308083,1.842609 2.904219,-0.48469 z m -0.482728,-0.410123 a 0.49057756,0.49057756 0 0 1 0.482728,0.410123 l -2.904219,0.48469 a 2.4528878,2.4528878 0 0 0 2.423453,2.048653 v -2.943466 z m 4.222891,0 h -4.222891 v 2.943466 h 4.222891 z m -0.482728,0.410123 a 0.49057756,0.49057756 0 0 1 0.482728,-0.410123 v 2.943466 a 2.4528878,2.4528878 0 0 0 2.419529,-2.048653 l -2.90422,-0.48469 z m 0.30612,-1.844572 -0.30612,1.844572 2.904219,0.48469 0.30612,-1.844571 -2.904219,-0.482729 z m 1.326522,-1.544338 c -0.673072,0.223703 -1.202896,0.804547 -1.326522,1.5463 l 2.904219,0.482729 a 0.96938124,0.96938124 0 0 1 -0.647562,0.763339 z m 3.571404,-2.06435 a 10.290355,10.290355 0 0 1 -3.571404,2.06435 l 0.930135,2.792368 a 13.235783,13.235783 0 0 0 4.591806,-2.655006 z m 2.001557,-0.374801 a 1.9740841,1.9740841 0 0 0 -2.001557,0.372839 l 1.952499,2.203674 a 0.96938124,0.96938124 0 0 1 -0.983117,0.17857 l 1.032175,-2.757046 z m 1.752343,0.655411 -1.752343,-0.657374 -1.032175,2.757046 1.752343,0.657374 z m -0.596542,0.215854 a 0.49057756,0.49057756 0 0 1 0.596542,-0.215854 l -1.032175,2.757046 a 2.4528878,2.4528878 0 0 0 2.984674,-1.071421 l -2.549041,-1.471733 z m 2.111446,-3.659708 -2.111446,3.657746 2.549041,1.471733 2.111446,-3.657747 z m 0.113814,0.624014 A 0.49057756,0.49057756 0 0 1 28.942525,20.40974 l 2.551003,1.471732 A 2.4528878,2.4528878 0 0 0 30.92642,18.761399 Z m -1.442298,-1.18916 1.442298,1.18916 1.870081,-2.272355 -1.442298,-1.18916 z m -0.676998,-1.919139 c -0.141286,0.694658 0.09615,1.442298 0.676998,1.919139 l 1.870081,-2.272355 c 0.294347,0.241364 0.404236,0.610279 0.337518,0.941909 z m 0.206043,-2.06435 c 0,0.708393 -0.07064,1.399127 -0.206043,2.06435 l 2.884597,0.588693 c 0.172683,-0.859492 0.264911,-1.746456 0.264911,-2.653043 z m -0.206043,-2.064351 c 0.1354,0.665223 0.206043,1.353994 0.206043,2.064351 h 2.943465 c 0,-0.906588 -0.09027,-1.793552 -0.264911,-2.651081 z m 0.676998,-1.919139 a 1.9760464,1.9760464 0 0 0 -0.676998,1.919139 l 2.884597,-0.588693 a 0.96938124,0.96938124 0 0 1 -0.337518,0.941909 z m 1.442298,-1.18916 -1.442298,1.18916 1.870081,2.272355 1.442298,-1.18916 z m -0.113814,0.624014 a 0.49057756,0.49057756 0 0 1 0.113814,-0.624014 L 30.92642,12.96081 A 2.4528878,2.4528878 0 0 0 31.491566,9.8407369 Z M 26.831079,7.6547233 28.942525,11.312469 31.493528,9.8407369 29.38012,6.1829905 Z m 0.596542,0.2138918 A 0.49057756,0.49057756 0 0 1 26.831079,7.6527608 L 29.38012,6.181028 A 2.4528878,2.4528878 0 0 0 26.395446,5.111569 Z M 25.675278,8.5240264 27.427621,7.8686151 26.395446,5.111569 24.643103,5.7689428 Z m -2.001557,-0.372839 c 0.529824,0.4709547 1.295125,0.6377509 2.001557,0.372839 L 24.643103,5.7689428 a 0.96938124,0.96938124 0 0 1 0.981155,0.1785706 l -1.950537,2.201712 z M 20.102317,6.0848748 a 10.290355,10.290355 0 0 1 3.571404,2.0643506 L 25.62622,5.9475134 A 13.23382,13.23382 0 0 0 21.034414,3.2925077 Z M 18.775795,4.5385746 c 0.123626,0.7437156 0.65345,1.322597 1.326522,1.5463002 l 0.930135,-2.7923671 a 0.96938124,0.96938124 0 0 1 0.647562,0.7633386 z m -0.30612,-1.8426092 0.30612,1.8445716 2.904219,-0.4846907 -0.308082,-1.8445716 -2.90422,0.4846907 z m 0.482728,0.4101228 A 0.49057756,0.49057756 0 0 1 18.469675,2.6959654 L 21.373894,2.213237 A 2.4528878,2.4528878 0 0 0 18.950441,0.16262279 V 3.1060882 Z m 2.303752,12.7550168 a 4.415198,4.415198 0 0 1 -4.415198,4.415197 v 2.943466 a 7.3586635,7.3586635 0 0 0 7.358664,-7.358663 z m -4.415198,-4.415198 a 4.415198,4.415198 0 0 1 4.415198,4.415198 h 2.943466 A 7.3586635,7.3586635 0 0 0 16.840957,8.5024411 Z m -4.415198,4.415198 a 4.415198,4.415198 0 0 1 4.415198,-4.415198 V 8.5024411 A 7.3586635,7.3586635 0 0 0 9.4822938,15.861105 Z m 4.415198,4.415197 A 4.415198,4.415198 0 0 1 12.425759,15.861105 H 9.4822938 a 7.3586635,7.3586635 0 0 0 7.3586632,7.358663 z"
     fill="#ffffff"
     id="path2"
     style="stroke-width:1.96231" />
</svg>
